<?xml version="1.0" encoding="utf-8"?>
<svg
  width="256" height="256"
  xmlns="http://www.w3.org/2000/svg"
  xmlns:xlink="http://www.w3.org/1999/xlink">
  <title>RSS Icon</title>
  <g transform="translate(-628.642,-546.344) scale(1.5)">
    <path
       style="fill:#444"
       d="m 385.00001,200.64285 c 0,13.21539 -11.03299,23.92857 -24.64286,23.92857 -13.60988,0 -24.64286,-10.71318 -24.64286,-23.92857 0,-13.21538 11.03298,-23.92857 24.64286,-23.92857 13.60987,0 24.64286,10.71319 24.64286,23.92857 z"
       transform="matrix(0.8699574,0,0,0.8699574,135.15631,330.52863)" />
    <path
       style="fill:#444"
       d="M 427.83482,455.05681 L 427.76203,424.78365 C 492.4681,428.1591 528.38081,474.45682 529.26224,526.72326 L 498.944,526.72326 C 498.44099,480.78249 467.20335,456.72804 427.83482,455.05681 z" />
    <path
       style="fill:#444"
       d="M 428.20143,404.57149 L 427.32264,373.81385 C 526.75104,378.43011 580.00028,450.58197 580.67143,526.72326 L 549.4744,526.28386 C 550.83932,477.58037 514.80871,406.01731 428.20143,404.57149 z" />
  </g>
</svg>